<svg width="164" height="164" xmlns="http://www.w3.org/2000/svg" xmlns:xlink="http://www.w3.org/1999/xlink" xml:space="preserve" overflow="hidden"><defs><clipPath id="clip0"><rect x="842" y="248" width="164" height="164"/></clipPath></defs><g clip-path="url(#clip0)" transform="translate(-842 -248)"><path d="M944.826 333.162 942.411 335.579 987.441 380.509C989.787 384.247 989.331 389.095 986.33 392.332 984.608 394.042 982.282 395.004 979.856 395.011 978.001 395.017 976.193 394.434 974.691 393.347 974.691 393.347 974.124 392.961 973.767 392.663 973.666 392.581 973.393 392.322 973.393 392.322L929.475 348.513 927.06 350.929 971.054 394.727 972.688 396.112C974.774 397.623 977.286 398.433 979.862 398.426 983.194 398.423 986.389 397.1 988.746 394.746 992.991 390.276 993.559 383.457 990.112 378.346Z"/><path d="M969.042 308.576C981.879 308.634 992.332 298.275 992.391 285.438 992.404 282.507 991.863 279.6 990.796 276.871L976.958 290.708 966.025 287.804 963.292 277.042 977.129 263.204C974.543 262.234 971.803 261.738 969.04 261.74 963.197 261.753 957.563 263.916 953.213 267.817 946.754 273.737 944.12 282.756 946.379 291.221L919.425 318.175 882.007 280.8 877.692 272.344 861.521 259.376 853.376 267.521 866.359 283.694 874.8 288.007 912.213 325.376 859.254 378.346C856.196 381.302 854.958 385.67 856.008 389.792 857.049 393.908 860.263 397.122 864.379 398.163 868.5 399.197 872.86 397.96 875.825 394.917L962.95 307.792C964.939 308.31 966.986 308.574 969.042 308.576ZM877.031 285.401 868.556 280.983 857.964 267.771 861.777 263.958 874.99 274.549 879.209 282.85 917.004 320.587 914.637 322.955ZM960.534 305.376 873.409 392.501C871.797 394.152 869.591 395.089 867.283 395.105 866.584 395.105 865.887 395.018 865.209 394.847 862.322 394.105 860.067 391.85 859.324 388.963 858.585 386.04 859.451 382.944 861.601 380.83L861.637 380.796 861.671 380.761 948.796 293.636 950.18 292.254 949.687 290.367C947.716 283.139 949.959 275.417 955.495 270.369 959.529 266.738 964.851 264.876 970.268 265.199L970.28 265.23 959.503 276 963.208 290.59 977.983 294.52 988.864 283.638C988.879 283.622 988.893 283.627 988.894 283.65 989.32 289.128 987.495 294.543 983.841 298.647 980.051 302.814 974.674 305.181 969.042 305.163 967.276 305.158 965.517 304.928 963.809 304.479L961.916 303.987Z"/><path d="M867.434 382.788C865.275 382.787 863.524 384.536 863.523 386.694 863.522 388.853 865.272 390.604 867.43 390.605 869.589 390.606 871.34 388.857 871.341 386.698 871.341 386.697 871.341 386.697 871.341 386.696 871.341 384.538 869.592 382.789 867.434 382.788Z"/></g></svg>